<mxfile host="app.diagrams.net" modified="2024-05-17T08:15:05.821Z" agent="Mozilla/5.0 (Windows NT 10.0; Win64; x64) AppleWebKit/537.36 (KHTML, like Gecko) Chrome/124.0.0.0 Safari/537.36" etag="-2rwz30nkx-MAb3FvoSP" version="24.4.3" type="device">
  <diagram name="Page-1" id="xFu32hCcl2DCEVELUWvM">
    <mxGraphModel dx="1882" dy="1601" grid="1" gridSize="10" guides="1" tooltips="1" connect="1" arrows="1" fold="1" page="1" pageScale="1" pageWidth="850" pageHeight="1100" math="0" shadow="0">
      <root>
        <mxCell id="0" />
        <mxCell id="1" parent="0" />
        <mxCell id="KYUgdhLQtjPnYYOKLARj-1" value="Order Service&lt;div&gt;json delta comparator&lt;/div&gt;&lt;div&gt;&lt;br&gt;&lt;/div&gt;" style="rounded=1;whiteSpace=wrap;html=1;" parent="1" vertex="1">
          <mxGeometry x="140" y="180" width="120" height="60" as="geometry" />
        </mxCell>
        <mxCell id="KYUgdhLQtjPnYYOKLARj-2" value="Order Event&lt;div&gt;consumer/publisher&lt;/div&gt;" style="rounded=1;whiteSpace=wrap;html=1;" parent="1" vertex="1">
          <mxGeometry x="120" y="310" width="120" height="60" as="geometry" />
        </mxCell>
        <mxCell id="KYUgdhLQtjPnYYOKLARj-3" value="sync" style="shape=singleArrow;whiteSpace=wrap;html=1;arrowWidth=0.11805521647135417;arrowSize=0.5166223526000977;rounded=1;fillColor=default;gradientColor=default;" parent="1" vertex="1">
          <mxGeometry x="340" y="150" width="80" height="60" as="geometry" />
        </mxCell>
        <mxCell id="KYUgdhLQtjPnYYOKLARj-5" value="Payment/Downstream" style="whiteSpace=wrap;html=1;rounded=1;" parent="1" vertex="1">
          <mxGeometry x="500" y="160" width="120" height="60" as="geometry" />
        </mxCell>
        <mxCell id="KYUgdhLQtjPnYYOKLARj-8" value="events" style="shape=singleArrow;whiteSpace=wrap;html=1;arrowWidth=0.4;arrowSize=0.4;rounded=1;" parent="1" vertex="1">
          <mxGeometry x="310" y="300" width="80" height="60" as="geometry" />
        </mxCell>
        <mxCell id="KYUgdhLQtjPnYYOKLARj-12" value="Kafka" style="shape=tape;whiteSpace=wrap;html=1;" parent="1" vertex="1">
          <mxGeometry x="510" y="290" width="120" height="100" as="geometry" />
        </mxCell>
        <mxCell id="KYUgdhLQtjPnYYOKLARj-15" value="" style="shape=flexArrow;endArrow=classic;html=1;rounded=0;" parent="1" edge="1">
          <mxGeometry width="50" height="50" relative="1" as="geometry">
            <mxPoint x="190" y="50" as="sourcePoint" />
            <mxPoint x="190" y="150" as="targetPoint" />
          </mxGeometry>
        </mxCell>
        <mxCell id="KYUgdhLQtjPnYYOKLARj-17" value="protof - schema&lt;div&gt;topic - event - eventDetails&lt;/div&gt;&lt;div&gt;sendMessage topics&amp;nbsp;&lt;/div&gt;&lt;div&gt;router store(topics/ confi )&lt;/div&gt;" style="shape=note;whiteSpace=wrap;html=1;backgroundOutline=1;darkOpacity=0.05;" parent="1" vertex="1">
          <mxGeometry x="650" y="290" width="160" height="140" as="geometry" />
        </mxCell>
        <mxCell id="KYUgdhLQtjPnYYOKLARj-18" value="router -&amp;nbsp;&lt;div&gt;config&lt;/div&gt;" style="rounded=1;whiteSpace=wrap;html=1;" parent="1" vertex="1">
          <mxGeometry x="510" y="480" width="120" height="50" as="geometry" />
        </mxCell>
        <mxCell id="KYUgdhLQtjPnYYOKLARj-24" value="" style="rounded=1;whiteSpace=wrap;html=1;fillColor=none;" parent="1" vertex="1">
          <mxGeometry x="130" y="320" width="120" height="60" as="geometry" />
        </mxCell>
        <mxCell id="KYUgdhLQtjPnYYOKLARj-25" value="" style="rounded=1;whiteSpace=wrap;html=1;fillColor=none;" parent="1" vertex="1">
          <mxGeometry x="130" y="170" width="120" height="60" as="geometry" />
        </mxCell>
        <mxCell id="KYUgdhLQtjPnYYOKLARj-26" value="" style="shape=flexArrow;endArrow=classic;startArrow=classic;html=1;rounded=0;exitX=1;exitY=0.5;exitDx=0;exitDy=0;fillColor=none;strokeColor=default;shadow=0;" parent="1" edge="1">
          <mxGeometry width="100" height="100" relative="1" as="geometry">
            <mxPoint x="270" y="190" as="sourcePoint" />
            <mxPoint x="500" y="190" as="targetPoint" />
            <Array as="points">
              <mxPoint x="340" y="190" />
              <mxPoint x="360" y="190" />
            </Array>
          </mxGeometry>
        </mxCell>
        <mxCell id="KYUgdhLQtjPnYYOKLARj-29" value="RDBMS Oracle DB&amp;nbsp;" style="shape=cylinder3;whiteSpace=wrap;html=1;boundedLbl=1;backgroundOutline=1;size=15;" parent="1" vertex="1">
          <mxGeometry y="240" width="70" height="80" as="geometry" />
        </mxCell>
        <mxCell id="KYUgdhLQtjPnYYOKLARj-32" value="" style="shape=flexArrow;endArrow=classic;html=1;rounded=0;" parent="1" edge="1">
          <mxGeometry width="50" height="50" relative="1" as="geometry">
            <mxPoint x="120" y="220" as="sourcePoint" />
            <mxPoint x="70" y="280" as="targetPoint" />
          </mxGeometry>
        </mxCell>
        <mxCell id="KYUgdhLQtjPnYYOKLARj-33" value="" style="shape=flexArrow;endArrow=classic;startArrow=classic;html=1;rounded=0;width=7;startSize=5.29;" parent="1" target="KYUgdhLQtjPnYYOKLARj-25" edge="1">
          <mxGeometry width="100" height="100" relative="1" as="geometry">
            <mxPoint x="195" y="320" as="sourcePoint" />
            <mxPoint x="185" y="240" as="targetPoint" />
            <Array as="points">
              <mxPoint x="195" y="280" />
            </Array>
          </mxGeometry>
        </mxCell>
        <mxCell id="KYUgdhLQtjPnYYOKLARj-34" value="" style="shape=flexArrow;endArrow=classic;html=1;rounded=0;" parent="1" edge="1">
          <mxGeometry width="50" height="50" relative="1" as="geometry">
            <mxPoint x="120" y="340" as="sourcePoint" />
            <mxPoint x="70" y="320" as="targetPoint" />
          </mxGeometry>
        </mxCell>
        <mxCell id="KYUgdhLQtjPnYYOKLARj-35" value="" style="shape=cylinder3;whiteSpace=wrap;html=1;boundedLbl=1;backgroundOutline=1;size=15;fillColor=none;" parent="1" vertex="1">
          <mxGeometry x="-10" y="250" width="70" height="80" as="geometry" />
        </mxCell>
        <mxCell id="KYUgdhLQtjPnYYOKLARj-36" value="" style="shape=flexArrow;endArrow=classic;startArrow=classic;html=1;rounded=0;entryX=0.083;entryY=0.7;entryDx=0;entryDy=0;entryPerimeter=0;" parent="1" target="KYUgdhLQtjPnYYOKLARj-12" edge="1">
          <mxGeometry width="100" height="100" relative="1" as="geometry">
            <mxPoint x="250" y="360" as="sourcePoint" />
            <mxPoint x="350" y="260" as="targetPoint" />
          </mxGeometry>
        </mxCell>
        <mxCell id="KYUgdhLQtjPnYYOKLARj-40" value="" style="shape=flexArrow;endArrow=classic;startArrow=classic;html=1;rounded=0;" parent="1" edge="1">
          <mxGeometry width="100" height="100" relative="1" as="geometry">
            <mxPoint x="560" y="320" as="sourcePoint" />
            <mxPoint x="559.5" y="220" as="targetPoint" />
          </mxGeometry>
        </mxCell>
        <mxCell id="KYUgdhLQtjPnYYOKLARj-41" value="" style="shape=flexArrow;endArrow=classic;startArrow=classic;html=1;rounded=0;" parent="1" edge="1">
          <mxGeometry width="100" height="100" relative="1" as="geometry">
            <mxPoint x="571.17" y="480" as="sourcePoint" />
            <mxPoint x="568.8299999999999" y="380" as="targetPoint" />
          </mxGeometry>
        </mxCell>
        <mxCell id="KYUgdhLQtjPnYYOKLARj-44" value="" style="rounded=1;whiteSpace=wrap;html=1;fillColor=none;" parent="1" vertex="1">
          <mxGeometry x="510" y="170" width="120" height="60" as="geometry" />
        </mxCell>
        <mxCell id="KYUgdhLQtjPnYYOKLARj-45" value="" style="shape=tape;whiteSpace=wrap;html=1;fillColor=none;" parent="1" vertex="1">
          <mxGeometry x="520" y="300" width="120" height="100" as="geometry" />
        </mxCell>
        <mxCell id="7fA53wQvLfmNKY042Kc0-1" value="OIS&amp;nbsp;&lt;br&gt;cart json" style="rounded=0;whiteSpace=wrap;html=1;" vertex="1" parent="1">
          <mxGeometry x="130" y="-20" width="120" height="60" as="geometry" />
        </mxCell>
      </root>
    </mxGraphModel>
  </diagram>
</mxfile>
